<?xml version="1.0" encoding="UTF-8"?>
<svg id="Layer_1" xmlns="http://www.w3.org/2000/svg" width="42.7mm" height="24.7mm" version="1.1" viewBox="0 0 121 70">
  <!-- Generator: Adobe Illustrator 29.8.1, SVG Export Plug-In . SVG Version: 2.1.1 Build 2)  -->
  <defs>
    <style>
      .st0 {
        fill: #f2f2f2;
      }
    </style>
  </defs>
  <path class="st0" d="M7.4.1c3.7,0,5.5,2.1,5.5,5.9v2.3c0,3.8-1.8,5.9-5.5,5.9h-1.8v9.7H2V.1h5.5ZM7.4,10.8c1.2,0,1.8-.5,1.8-2.2v-2.8c0-1.7-.6-2.2-1.8-2.2h-1.8v7.3h1.8Z"/>
  <path class="st0" d="M15,.1h3.7v9.7h4V.1h3.7v23.7h-3.7v-10.7h-4v10.7h-3.7V.1Z"/>
  <path class="st0" d="M29.1,18.3V.1h3.7v18.4c0,1.7.7,2.3,1.9,2.3s1.9-.6,1.9-2.3V.1h3.6v18.1c0,3.8-1.9,6-5.5,6s-5.5-2.2-5.5-6h0Z"/>
  <path class="st0" d="M42.8.1h5.3l2.4,17h0L52.9.1h5.3v23.7h-3.5V5.9h0l-2.7,18h-3.1l-2.7-18h0v18h-3.2V.1Z"/>
  <path class="st0" d="M61,.1h10.1v3.4h-6.4v6.3h5.1v3.4h-5.1v7.3h6.4v3.4h-10.1V.1Z"/>
  <path class="st0" d="M73.3.1h3.7v20.3h6.1v3.4h-9.8V.1Z"/>
  <path class="st0" d="M84.9.1h10.1v3.4h-6.4v6.3h5.1v3.4h-5.1v7.3h6.4v3.4h-10.1V.1Z"/>
  <path class="st0" d="M97.2.1h3.7v20.3h6.1v3.4h-9.8V.1Z"/>
  <path class="st0" d="M111.8.1h5l3.9,23.7h-3.7l-.7-4.7h0c0,0-4.2,0-4.2,0l-.7,4.6h-3.4L111.8.1ZM115.9,16l-1.7-11.7h0l-1.6,11.7h3.3Z"/>
  <path class="st0" d="M1.5,27h4.7l3.6,14.2h0v-14.2h3.3v23.7h-3.8l-4.5-17.3h0v17.3H1.5v-23.7Z"/>
  <path class="st0" d="M15.7,45.1v-12.5c0-3.8,2-6,5.6-6s5.6,2.2,5.6,6v12.5c0,3.8-2,6-5.6,6s-5.6-2.2-5.6-6ZM23.2,45.3v-13c0-1.7-.7-2.3-1.9-2.3s-1.9.6-1.9,2.3v13c0,1.7.7,2.3,1.9,2.3s1.9-.6,1.9-2.3Z"/>
  <path class="st0" d="M29.5,27h4.7l3.6,14.2h0v-14.2h3.3v23.7h-3.8l-4.5-17.3h0v17.3h-3.3v-23.7Z"/>
  <path class="st0" d="M54.8,27c3.7,0,5.5,2.1,5.5,5.9v2.3c0,3.8-1.8,5.9-5.5,5.9h-1.8v9.7h-3.7v-23.7h5.5ZM54.8,37.6c1.2,0,1.8-.5,1.8-2.2v-2.8c0-1.7-.6-2.2-1.8-2.2h-1.8v7.3h1.8Z"/>
  <path class="st0" d="M67.9,27c3.9,0,5.5,1.8,5.5,5.5v1.5c0,2.4-.8,4-2.4,4.7h0c1.9.6,2.5,2.4,2.5,5.1v4.2c0,1.2,0,2,.4,2.9h-3.8c-.2-.6-.3-1-.3-2.9v-4.3c0-2.2-.6-2.9-2.3-2.9h-1.3v10.2h-3.7v-23.7h5.5ZM67.4,37.1c1.4,0,2.2-.6,2.2-2.5v-1.8c0-1.7-.6-2.4-1.9-2.4h-1.7v6.8h1.4Z"/>
  <path class="st0" d="M75.7,45.1v-12.5c0-3.8,2-6,5.6-6s5.6,2.2,5.6,6v12.5c0,3.8-2,6-5.6,6s-5.6-2.2-5.6-6ZM83.3,45.3v-13c0-1.7-.7-2.3-1.9-2.3s-1.9.6-1.9,2.3v13c0,1.7.7,2.3,1.9,2.3s1.9-.6,1.9-2.3Z"/>
  <path class="st0" d="M89.5,27h9.8v3.4h-6.1v6.6h4.8v3.4h-4.8v10.3h-3.7v-23.7Z"/>
  <path class="st0" d="M101.1,27h3.7v23.7h-3.7v-23.7Z"/>
  <path class="st0" d="M106.6,30.3v-3.4h11.5v3.4h-3.9v20.3h-3.7v-20.3h-3.9Z"/>
  <path class="st0" d="M.8,66.4v-7.5c0-2.3,1.2-3.6,3.4-3.6s3.4,1.3,3.4,3.6v7.5c0,2.3-1.2,3.6-3.4,3.6s-3.4-1.3-3.4-3.6ZM5.3,66.6v-7.7c0-1-.4-1.4-1.2-1.4s-1.2.4-1.2,1.4v7.7c0,1,.4,1.4,1.2,1.4s1.2-.4,1.2-1.4Z"/>
  <path class="st0" d="M9,55.6h3.3c2.3,0,3.3,1.1,3.3,3.3v.9c0,1.5-.5,2.4-1.5,2.8h0c1.1.4,1.5,1.4,1.5,3v2.5c0,.7,0,1.2.2,1.7h-2.3c-.1-.4-.2-.6-.2-1.7v-2.6c0-1.3-.4-1.7-1.4-1.7h-.8v6.1h-2.2v-14.2h0ZM12.1,61.7c.8,0,1.3-.4,1.3-1.5v-1.1c0-1-.3-1.5-1.1-1.5h-1v4.1h.8Z"/>
  <path class="st0" d="M17,66.4v-7.5c0-2.3,1.1-3.6,3.3-3.6s3.3,1.3,3.3,3.6v1.2h-2.1v-1.4c0-1-.4-1.4-1.2-1.4s-1.2.4-1.2,1.4v7.8c0,1,.4,1.4,1.2,1.4s1.2-.4,1.2-1.4v-2.8h-1.1v-2h3.2v4.6c0,2.3-1.1,3.6-3.3,3.6s-3.3-1.3-3.3-3.6h0Z"/>
  <path class="st0" d="M26.8,55.6h3l2.3,14.2h-2.2l-.4-2.8h0s-2.5,0-2.5,0l-.4,2.8h-2.1l2.3-14.2h0ZM29.2,65.1l-1-7h0l-1,7h2,0Z"/>
  <path class="st0" d="M33.2,55.6h2.8l2.2,8.5h0v-8.5h2v14.2h-2.3l-2.7-10.4h0v10.4h-2v-14.2Z"/>
  <path class="st0" d="M41.8,55.6h2.2v14.2h-2.2v-14.2Z"/>
  <path class="st0" d="M45.3,66.4v-.8h2.1v1c0,1,.4,1.4,1.2,1.4s1.2-.4,1.2-1.4-.4-1.9-1.9-3.2c-1.9-1.6-2.5-2.8-2.5-4.4s1.2-3.5,3.3-3.5,3.2,1.3,3.2,3.6v.6h-2.1v-.7c0-1-.4-1.4-1.1-1.4s-1.1.4-1.1,1.4.5,1.8,1.9,3.1c1.9,1.6,2.4,2.8,2.4,4.5s-1.2,3.6-3.4,3.6-3.3-1.3-3.3-3.6Z"/>
  <path class="st0" d="M54.9,55.6h3l2.3,14.2h-2.2l-.4-2.8h0s-2.5,0-2.5,0l-.4,2.8h-2.1l2.3-14.2h0ZM57.3,65.1l-1-7h0l-1,7h2,0Z"/>
  <path class="st0" d="M59.7,57.6v-2h6.9v2h-2.3v12.2h-2.2v-12.2h-2.3Z"/>
  <path class="st0" d="M67.7,55.6h2.2v14.2h-2.2v-14.2Z"/>
  <path class="st0" d="M71.4,66.4v-7.5c0-2.3,1.2-3.6,3.4-3.6s3.4,1.3,3.4,3.6v7.5c0,2.3-1.2,3.6-3.4,3.6s-3.4-1.3-3.4-3.6ZM75.9,66.6v-7.7c0-1-.4-1.4-1.2-1.4s-1.2.4-1.2,1.4v7.7c0,1,.4,1.4,1.2,1.4s1.2-.4,1.2-1.4Z"/>
  <path class="st0" d="M79.6,55.6h2.8l2.2,8.5h0v-8.5h2v14.2h-2.3l-2.7-10.4h0v10.4h-2v-14.2Z"/>
</svg>